<svg width="217" height="90" viewBox="0 0 217 90" fill="none" xmlns="http://www.w3.org/2000/svg">
<g clip-path="url(#clip0_92_9)">
<path fill-rule="evenodd" clip-rule="evenodd" d="M147.322 0H196.677C207.855 0 217 9.18754 217 20.4165V69.5833C217 80.8125 207.855 89.9998 196.677 89.9998H147.322C136.145 89.9998 127 80.8125 127 69.5833V20.4165C127 9.18754 136.145 0 147.322 0Z" fill="#D77655"/>
<path d="M152.009 55.9134L164.956 48.6154L165.173 47.9817L164.956 47.6292L164.325 47.629L162.161 47.495L154.763 47.294L148.348 47.0263L142.132 46.6914L140.568 46.3568L139.102 44.4151L139.253 43.4467L140.568 42.5584L142.452 42.7235L146.615 43.0091L152.862 43.4421L157.394 43.71L164.107 44.4107H165.173L165.325 43.9779L164.96 43.71L164.676 43.4421L158.211 39.041L151.213 34.3898L147.548 31.7116L145.566 30.3548L144.567 29.0826L144.136 26.3063L145.935 24.3156L148.352 24.4807L148.97 24.646L151.418 26.5384L156.647 30.6049L163.476 35.6576L164.476 36.4924L164.876 36.2068L164.925 36.0058L164.476 35.2516L160.762 28.5069L156.798 21.6465L155.035 18.8032L154.568 17.0981C154.404 16.3974 154.284 15.8083 154.284 15.0895L156.332 12.2953L157.465 11.9292L160.197 12.2953L161.348 13.2996L163.045 17.2009L165.796 23.3429L170.061 31.6943L171.31 34.1715L171.976 36.4659L172.225 37.1666L172.655 37.1664V36.7647L173.006 32.06L173.655 26.2841L174.286 18.8523L174.504 16.7589L175.534 14.2502L177.582 12.8934L179.182 13.6612L180.497 15.5536L180.315 16.7767L179.533 21.883L178 29.8817L177 35.238H177.583L178.249 34.5685L180.946 30.9709L185.478 25.2798L187.478 23.0213L189.81 20.5262L191.307 19.3388L194.137 19.3386L196.221 22.4497L195.288 25.6635L192.374 29.3772L189.957 32.5239L186.491 37.2108L184.327 40.96L184.527 41.2592L185.043 41.2101L192.871 39.5362L197.101 38.7685L202.148 37.8982L204.432 38.9695L204.681 40.0585L203.783 42.2859L198.385 43.625L192.054 44.8972L182.626 47.1381L182.51 47.2228L182.643 47.3879L186.891 47.7897L188.708 47.8879H193.155L201.437 48.5084L203.601 49.9457L204.898 51.7045L204.681 53.0436L201.348 54.7486L196.852 53.6774L186.358 51.1688L182.759 50.2671L182.261 50.267V50.5661L185.26 53.5121L190.756 58.4979L197.638 64.9254L197.989 66.5146L197.105 67.7688L196.172 67.6349L190.125 63.0641L187.793 61.0066L182.51 56.5384L182.159 56.5382V57.0069L183.377 58.7969L189.806 68.5052L190.139 71.4824L189.672 72.451L188.006 73.0357L186.176 72.7011L182.412 67.3937L178.529 61.417L175.397 56.0607L175.015 56.2793L173.167 76.2807L172.3 77.3028L170.301 78.0707L168.635 76.7985L167.751 74.7408L168.635 70.6743L169.701 65.3673L170.567 61.1491L171.349 55.9088L171.816 54.168L171.785 54.0519L171.403 54.101L167.471 59.5243L161.49 67.6436L156.758 72.7322L155.625 73.183L153.661 72.1607L153.844 70.3353L154.941 68.7106L161.49 60.3414L165.44 55.1546L167.99 52.1594L167.973 51.7265H167.822L150.427 63.0729L147.33 63.4747L145.997 62.2203L146.162 60.1627L146.793 59.4932L152.022 55.8776L152.004 55.8956L152.009 55.9134Z" fill="#FCF2EE"/>
</g>
<g clip-path="url(#clip1_92_9)">
<path d="M60.6706 89.4335C55.4028 89.8112 50.1251 90 44.8473 90C36.3592 90 27.8711 89.513 19.4525 88.5389C9.68222 88.1811 1.8799 80.349 1.53202 70.5489L1.29348 68.5113C-0.525403 52.3203 -0.42601 36 1.59166 19.968L1.76063 18.6162C1.76063 18.6162 1.76063 18.5864 1.76063 18.5665L1.80038 18.2982C3.06267 9.43236 10.0897 2.55439 18.9854 1.52071C36.1405 -0.506903 53.5442 -0.506903 70.7093 1.52071C80.1715 2.64384 87.7849 10.9531 88.1527 20.5047C90.1107 36.4473 90.1902 52.5986 88.3912 68.5113L88.1527 70.5787C87.8048 79.534 80.6684 87.3263 71.7927 88.3799L60.6806 89.4335H60.6706ZM11.5806 20.1668L11.4514 21.2104C9.53313 36.4671 9.44367 51.9923 11.1632 67.3683L11.4514 70.0718C11.5607 74.7532 15.278 78.5003 19.9197 78.6096L20.3769 78.6394C35.2162 80.3689 50.2841 80.5179 65.1532 79.0767L70.5999 78.5003C74.6949 78.0133 78.1041 74.2363 78.2035 70.0718L78.2333 69.6245L78.4917 67.3683C80.2112 52.1612 80.1317 36.7156 78.2333 21.4787L78.1935 20.9917C78.0743 16.2408 74.188 11.9271 69.5166 11.3705C53.1267 9.43236 36.5083 9.43236 20.1184 11.3705C15.7551 11.8774 12.3161 15.2269 11.6403 19.5704V19.8388L11.5607 20.1469L11.5806 20.1668Z" fill="#0D0D3D"/>
<path d="M43.2859 25.5781H41.1193C38.2866 25.5781 35.9806 27.8741 35.9806 30.7068C35.9806 30.7068 35.9806 33.1021 35.9806 33.291C35.8812 36.4716 33.6052 38.6979 30.4445 38.7675C30.0768 38.7675 27.91 38.7675 27.91 38.7675C25.0773 38.7675 22.7812 41.0635 22.7812 43.8962V46.0729C22.7812 48.9056 25.0773 51.2015 27.91 51.2015H30.345C33.7144 51.2612 35.9408 53.4677 35.9806 56.8272C35.9806 57.3838 35.9806 59.2722 35.9806 59.2722C35.9806 62.1049 38.2866 64.4009 41.1193 64.4009H43.2859C46.1186 64.4009 48.4146 62.1049 48.4146 59.2722V57.0955C48.4146 54.2628 46.1186 51.9669 43.2859 51.9669C43.2859 51.9669 40.841 51.9669 40.7317 51.9669C37.571 51.8973 35.2848 49.6808 35.1854 46.5003C35.1854 46.381 35.1854 43.6676 35.1854 43.6179C35.2252 40.2684 37.4615 38.0718 40.8309 38.0121C40.9105 38.0121 43.2859 38.0121 43.2859 38.0121C46.1186 38.0121 48.4146 35.7162 48.4146 32.8835V30.7068C48.4146 27.8741 46.1186 25.5781 43.2859 25.5781Z" fill="#0D0D3D"/>
<path d="M59.8549 25.4219H59.1989C56.5531 25.4219 54.4082 27.5668 54.4082 30.2126V59.7819C54.4082 62.4277 56.5531 64.5726 59.1989 64.5726H59.8549C62.5008 64.5726 64.6456 62.4277 64.6456 59.7819V30.2126C64.6456 27.5668 62.5008 25.4219 59.8549 25.4219Z" fill="#0D0D3D"/>
</g>
<defs>
<clipPath id="clip0_92_9">
<rect width="90" height="90" fill="white" transform="translate(127)"/>
</clipPath>
<clipPath id="clip1_92_9">
<rect width="90" height="90" fill="white"/>
</clipPath>
</defs>
</svg>
