<svg width="461" height="207" viewBox="0 0 461 207" fill="none" xmlns="http://www.w3.org/2000/svg">
<g clip-path="url(#clip0_92_28)">
<path fill-rule="evenodd" clip-rule="evenodd" d="M300.742 0H414.258C439.966 0 461 21.1314 461 46.958V160.042C461 185.869 439.966 207 414.258 207H300.742C275.034 207 254 185.869 254 160.042V46.958C254 21.1314 275.034 0 300.742 0Z" fill="#D77655"/>
<path d="M311.519 128.601L341.298 111.816L341.798 110.358L341.298 109.547L339.847 109.547L334.87 109.238L317.855 108.776L303.099 108.16L288.803 107.39L285.206 106.621L281.834 102.155L282.181 99.9273L285.206 97.8843L289.539 98.2641L299.114 98.9209L313.482 99.9168L323.905 100.533L339.346 102.145H341.798L342.146 101.149L341.308 100.533L340.654 99.9168L325.785 89.7942L309.69 79.0966L301.26 72.9366L296.702 69.816L294.403 66.89L293.412 60.5046L297.551 55.9258L303.11 56.3056L304.53 56.6858L310.161 61.0383L322.188 70.3911L337.895 82.0124L340.194 83.9324L341.114 83.2756L341.226 82.8134L340.194 81.0787L331.651 65.5658L322.536 49.787L318.479 43.2473L317.406 39.3257C317.028 37.714 316.752 36.359 316.752 34.7059L321.463 28.2791L324.068 27.4371L330.353 28.2791L333 30.589L336.904 39.5621L343.229 53.6887L353.04 72.8968L355.911 78.5945L357.444 83.8715L358.016 85.4832L359.007 85.4828V84.5587L359.814 73.738L361.306 60.4534L362.757 43.3602L363.258 38.5455L365.628 32.7754L370.339 29.6548L374.018 31.4208L377.043 35.7733L376.624 38.5865L374.825 50.3309L371.3 68.7279L369 81.0474H370.34L371.873 79.5076L378.076 71.2331L388.499 58.1435L393.098 52.949L398.463 47.2103L401.906 44.4792L408.415 44.4788L413.208 51.6342L411.062 59.0261L404.359 67.5674L398.799 74.805L390.828 85.5847L385.852 94.2081L386.312 94.8961L387.497 94.7832L405.503 90.9331L415.231 89.1675L426.84 87.1659L432.093 89.6297L432.665 92.1346L430.601 97.2576L418.185 100.338L403.623 103.264L381.938 108.417L381.673 108.612L381.979 108.992L391.749 109.916L395.928 110.142H406.157L425.205 111.569L430.181 114.875L433.166 118.92L432.665 122L425.001 125.922L414.659 123.458L390.522 117.688L382.244 115.614L381.1 115.614V116.302L387.998 123.078L400.639 134.545L416.468 149.328L417.275 152.984L415.241 155.868L413.096 155.56L399.188 145.047L393.823 140.315L381.672 130.038L380.865 130.038V131.116L383.665 135.233L398.452 157.562L399.218 164.41L398.146 166.637L394.313 167.982L390.103 167.213L381.448 155.005L372.516 141.259L365.312 128.94L364.433 129.442L360.182 175.446L358.189 177.796L353.591 179.562L349.759 176.636L347.725 171.904L349.759 162.551L352.212 150.345L354.204 140.643L356.003 128.59L357.076 124.586L357.004 124.319L356.126 124.432L347.081 136.906L333.327 155.58L322.444 167.284L319.838 168.321L315.321 165.97L315.74 161.771L318.264 158.034L333.327 138.785L342.411 126.856L348.277 119.967L348.236 118.971H347.889L307.882 145.068L300.759 145.992L297.693 143.107L298.072 138.374L299.523 136.834L311.55 128.518L311.509 128.56L311.519 128.601Z" fill="#FCF2EE"/>
</g>
<g clip-path="url(#clip1_92_28)">
<path d="M0 16C0 7.16344 7.16344 0 16 0H184C192.837 0 200 7.16344 200 16V192C200 200.837 192.837 208 184 208H16C7.16344 208 0 200.837 0 192V16Z" fill="white"/>
<g filter="url(#filter0_f_92_28)">
<rect x="-15" y="-40" width="215" height="223" rx="107.5" fill="url(#paint0_linear_92_28)" fill-opacity="0.5"/>
</g>
<g opacity="0.99" filter="url(#filter1_f_92_28)">
<path d="M107 140.5C107 103.773 192.514 74 298 74C403.486 74 489 103.773 489 140.5C489 177.227 403.486 207 298 207C192.514 207 107 177.227 107 140.5Z" fill="url(#paint1_linear_92_28)"/>
<g filter="url(#filter2_f_92_28)">
<path d="M176 84C176 56.3858 194.356 34 217 34C239.644 34 258 56.3858 258 84C258 111.614 239.644 134 217 134C194.356 134 176 111.614 176 84Z" fill="url(#paint2_linear_92_28)"/>
</g>
</g>
<path fill-rule="evenodd" clip-rule="evenodd" d="M58.2053 177.135C80.8563 179.815 103.702 180.322 126.445 178.652L126.462 178.618L144.859 176.832C159.554 175.046 171.368 161.835 171.944 146.653L172.339 143.149C175.318 116.171 175.186 88.7898 171.944 61.762C171.336 45.5689 158.731 31.4822 143.065 29.5781C114.62 26.1406 85.8777 26.1406 57.4319 29.5781C42.688 31.3305 31.0705 43.0077 28.9807 58.055L28.9149 58.5099V58.5942L28.6351 60.8858C25.2947 88.0652 25.1301 115.733 28.1415 143.182L28.5364 146.637C29.1123 163.251 42.0297 176.529 58.2053 177.135ZM44.9588 62.9921L45.1727 61.2228L45.1398 61.1891L45.2714 60.6667V60.2118C46.3904 52.8482 52.0839 47.1697 59.3078 46.3104C86.4743 43.0246 113.924 43.0246 141.091 46.3104C148.825 47.254 155.259 54.567 155.456 62.6214L155.522 63.447C158.665 89.2784 158.797 115.464 155.95 141.244L155.522 145.069L155.473 145.828C155.308 152.888 149.664 159.291 142.884 160.117L133.867 161.094C109.25 163.537 84.3034 163.285 59.7356 160.353L58.9787 160.302C51.2941 160.117 45.1398 153.764 44.9588 145.828L44.4816 141.244C41.6348 115.177 41.7829 88.8572 44.9588 62.9921ZM94.0751 70.4142H97.6624C99.9143 70.4142 102.074 71.3302 103.666 72.9608C105.259 74.5914 106.153 76.8029 106.153 79.1089V82.7991C106.153 83.9409 105.934 85.0715 105.507 86.1264C105.08 87.1813 104.455 88.1398 103.666 88.9472C102.878 89.7545 101.942 90.395 100.912 90.8319C99.8815 91.2689 98.7774 91.4938 97.6624 91.4938H93.5979C88.0196 91.5949 84.3171 95.3188 84.2513 100.997V105.884C84.4158 111.276 88.2006 115.034 93.4333 115.151H97.6624C99.9143 115.151 102.074 116.068 103.666 117.698C105.259 119.329 106.153 121.54 106.153 123.846V127.536C106.153 129.842 105.259 132.054 103.666 133.684C102.074 135.315 99.9143 136.231 97.6624 136.231H94.0751C89.3853 136.231 85.5677 132.339 85.5677 127.536V123.391C85.5019 117.696 81.8159 113.955 76.2376 113.854H72.206C69.9541 113.854 67.7944 112.938 66.202 111.307C64.6097 109.677 63.7151 107.465 63.7151 105.159V101.469C63.7151 99.1631 64.6097 96.9516 66.202 95.321C67.7944 93.6904 69.9541 92.7744 72.206 92.7744H76.4021C81.6349 92.6564 85.4032 88.882 85.5677 83.4899V79.1089C85.5677 74.3066 89.3853 70.4142 94.0751 70.4142ZM124.007 70.1243H125.093C127.197 70.1243 129.214 70.98 130.702 72.5032C132.189 74.0263 133.025 76.0921 133.025 78.2461V128.376C133.025 130.53 132.189 132.595 130.702 134.119C129.214 135.642 127.197 136.497 125.093 136.497H124.007C121.904 136.497 119.886 135.642 118.399 134.119C116.911 132.595 116.076 130.53 116.076 128.376V78.2461C116.076 76.0921 116.911 74.0263 118.399 72.5032C119.886 70.98 121.904 70.1243 124.007 70.1243Z" fill="#111A4A"/>
<path fill-rule="evenodd" clip-rule="evenodd" d="M58.2053 177.135C80.8563 179.815 103.702 180.322 126.445 178.652L126.462 178.618L144.859 176.832C159.554 175.046 171.368 161.835 171.944 146.653L172.339 143.149C175.318 116.171 175.186 88.7898 171.944 61.762C171.336 45.5689 158.731 31.4822 143.065 29.5781C114.62 26.1406 85.8777 26.1406 57.4319 29.5781C42.688 31.3305 31.0705 43.0077 28.9807 58.055L28.9149 58.5099V58.5942L28.6351 60.8858C25.2947 88.0652 25.1301 115.733 28.1415 143.182L28.5364 146.637C29.1123 163.251 42.0297 176.529 58.2053 177.135ZM44.9588 62.9921L45.1727 61.2228L45.1398 61.1891L45.2714 60.6667V60.2118C46.3904 52.8482 52.0839 47.1697 59.3078 46.3104C86.4743 43.0246 113.924 43.0246 141.091 46.3104C148.825 47.254 155.259 54.567 155.456 62.6214L155.522 63.447C158.665 89.2784 158.797 115.464 155.95 141.244L155.522 145.069L155.473 145.828C155.308 152.888 149.664 159.291 142.884 160.117L133.867 161.094C109.25 163.537 84.3034 163.285 59.7356 160.353L58.9787 160.302C51.2941 160.117 45.1398 153.764 44.9588 145.828L44.4816 141.244C41.6348 115.177 41.7829 88.8572 44.9588 62.9921ZM94.0751 70.4142H97.6624C99.9143 70.4142 102.074 71.3302 103.666 72.9608C105.259 74.5914 106.153 76.8029 106.153 79.1089V82.7991C106.153 83.9409 105.934 85.0715 105.507 86.1264C105.08 87.1813 104.455 88.1398 103.666 88.9472C102.878 89.7545 101.942 90.395 100.912 90.8319C99.8815 91.2689 98.7774 91.4938 97.6624 91.4938H93.5979C88.0196 91.5949 84.3171 95.3188 84.2513 100.997V105.884C84.4158 111.276 88.2006 115.034 93.4333 115.151H97.6624C99.9143 115.151 102.074 116.068 103.666 117.698C105.259 119.329 106.153 121.54 106.153 123.846V127.536C106.153 129.842 105.259 132.054 103.666 133.684C102.074 135.315 99.9143 136.231 97.6624 136.231H94.0751C89.3853 136.231 85.5677 132.339 85.5677 127.536V123.391C85.5019 117.696 81.8159 113.955 76.2376 113.854H72.206C69.9541 113.854 67.7944 112.938 66.202 111.307C64.6097 109.677 63.7151 107.465 63.7151 105.159V101.469C63.7151 99.1631 64.6097 96.9516 66.202 95.321C67.7944 93.6904 69.9541 92.7744 72.206 92.7744H76.4021C81.6349 92.6564 85.4032 88.882 85.5677 83.4899V79.1089C85.5677 74.3066 89.3853 70.4142 94.0751 70.4142ZM124.007 70.1243H125.093C127.197 70.1243 129.214 70.98 130.702 72.5032C132.189 74.0263 133.025 76.0921 133.025 78.2461V128.376C133.025 130.53 132.189 132.595 130.702 134.119C129.214 135.642 127.197 136.497 125.093 136.497H124.007C121.904 136.497 119.886 135.642 118.399 134.119C116.911 132.595 116.076 130.53 116.076 128.376V78.2461C116.076 76.0921 116.911 74.0263 118.399 72.5032C119.886 70.98 121.904 70.1243 124.007 70.1243Z" fill="url(#paint3_linear_92_28)" fill-opacity="0.2"/>
</g>
<defs>
<filter id="filter0_f_92_28" x="-179" y="-204" width="543" height="551" filterUnits="userSpaceOnUse" color-interpolation-filters="sRGB">
<feFlood flood-opacity="0" result="BackgroundImageFix"/>
<feBlend mode="normal" in="SourceGraphic" in2="BackgroundImageFix" result="shape"/>
<feGaussianBlur stdDeviation="82" result="effect1_foregroundBlur_92_28"/>
</filter>
<filter id="filter1_f_92_28" x="54.064" y="-18.936" width="487.872" height="278.872" filterUnits="userSpaceOnUse" color-interpolation-filters="sRGB">
<feFlood flood-opacity="0" result="BackgroundImageFix"/>
<feBlend mode="normal" in="SourceGraphic" in2="BackgroundImageFix" result="shape"/>
<feGaussianBlur stdDeviation="26.468" result="effect1_foregroundBlur_92_28"/>
</filter>
<filter id="filter2_f_92_28" x="-78" y="-220" width="590" height="608" filterUnits="userSpaceOnUse" color-interpolation-filters="sRGB">
<feFlood flood-opacity="0" result="BackgroundImageFix"/>
<feBlend mode="normal" in="SourceGraphic" in2="BackgroundImageFix" result="shape"/>
<feGaussianBlur stdDeviation="127" result="effect1_foregroundBlur_92_28"/>
</filter>
<linearGradient id="paint0_linear_92_28" x1="-15" y1="71.5" x2="200" y2="71.5" gradientUnits="userSpaceOnUse">
<stop stop-color="#7EA7E9"/>
<stop offset="1" stop-color="#94EFB7"/>
</linearGradient>
<linearGradient id="paint1_linear_92_28" x1="413.488" y1="186.071" x2="395.454" y2="100.967" gradientUnits="userSpaceOnUse">
<stop stop-color="white"/>
<stop offset="1" stop-color="white" stop-opacity="0"/>
</linearGradient>
<linearGradient id="paint2_linear_92_28" x1="239.976" y1="84.0134" x2="179.092" y2="82.4624" gradientUnits="userSpaceOnUse">
<stop stop-color="#F4E28D"/>
<stop offset="0.24" stop-color="#F4E28D"/>
<stop offset="0.734" stop-color="#4B8396"/>
<stop offset="1" stop-color="#1C6983"/>
</linearGradient>
<linearGradient id="paint3_linear_92_28" x1="100.239" y1="27" x2="100.239" y2="179.613" gradientUnits="userSpaceOnUse">
<stop offset="0.15" stop-color="white"/>
<stop offset="1" stop-color="white" stop-opacity="0"/>
</linearGradient>
<clipPath id="clip0_92_28">
<rect x="254" width="207" height="207" rx="50" fill="white"/>
</clipPath>
<clipPath id="clip1_92_28">
<rect width="200" height="207" rx="50" fill="white"/>
</clipPath>
</defs>
</svg>
